<svg xmlns="http://www.w3.org/2000/svg" viewBox="0 0 512 512" width="512" height="512">
  <path d="M211.5,19.5 L192.0,22.3 L178.1,25.0 L167.0,27.8 L158.6,30.6 L150.3,33.4 L111.3,52.9 L103.0,58.4 L94.6,64.0 L80.7,75.1 L55.7,100.2 L47.3,111.3 L39.0,122.4 L33.4,130.8 L16.7,164.2 L8.3,189.2 L5.6,200.3 L2.8,214.3 L0.0,236.5 L0.0,272.7 L2.8,295.0 L5.6,306.1 L8.3,317.2 L16.7,342.3 L22.3,356.2 L25.0,361.7 L27.8,367.3 L36.2,381.2 L41.7,389.6 L50.1,400.7 L69.6,423.0 L75.1,428.5 L91.8,442.4 L103.0,450.8 L111.3,456.3 L130.8,467.5 L136.3,470.3 L141.9,473.0 L164.2,481.4 L183.7,487.0 L197.6,489.7 L272.7,489.7 L283.8,487.0 L295.0,484.2 L317.2,475.8 L342.3,464.7 L359.0,456.3 L378.4,445.2 L392.3,436.9 L406.3,428.5 L439.7,406.3 L459.1,392.3 L470.3,384.0 L495.3,364.5 L509.2,353.4 L509.2,283.8 L503.7,289.4 L500.9,289.4 L487.0,303.3 L473.0,314.4 L459.1,325.6 L423.0,353.4 L395.1,372.9 L378.4,384.0 L353.4,400.7 L333.9,411.8 L322.8,417.4 L306.1,425.7 L278.3,436.9 L267.1,439.7 L256.0,442.4 L205.9,442.4 L192.0,439.7 L172.5,434.1 L153.0,425.7 L147.5,423.0 L133.6,414.6 L125.2,409.0 L116.9,403.5 L83.5,370.1 L75.1,359.0 L69.6,350.6 L61.2,336.7 L58.4,331.1 L55.7,325.6 L44.5,292.2 L41.7,278.3 L39.0,250.4 L39.0,244.9 L41.7,214.3 L44.5,200.3 L47.3,189.2 L50.1,180.9 L52.9,172.5 L58.4,161.4 L66.8,144.7 L72.3,136.3 L80.7,125.2 L91.8,111.3 L111.3,91.8 L122.4,83.5 L130.8,77.9 L139.1,72.3 L153.0,64.0 L172.5,55.7 L180.9,52.9 L189.2,50.1 L200.3,47.3 L214.3,44.5 L278.3,44.5 L295.0,47.3 L306.1,50.1 L317.2,52.9 L342.3,61.2 L359.0,69.6 L386.8,83.5 L400.7,91.8 L425.7,108.5 L445.2,122.4 L459.1,133.6 L473.0,144.7 L487.0,158.6 L489.7,158.6 L503.7,172.5 L445.2,114.1 L425.7,97.4 L411.8,86.3 L400.7,77.9 L375.7,61.2 L359.0,52.9 L331.1,39.0 L317.2,33.4 L297.7,27.8 L286.6,25.0 L272.7,22.3 L250.4,19.5 Z" fill="#ff6200" fill-rule="evenodd" />
</svg>
